<svg xmlns="http://www.w3.org/2000/svg" viewBox="0 0 800 600" role="img" aria-labelledby="title desc">
  <title id="title">Musinsa fashion campaign portfolio mockup</title>
  <desc id="desc">A black and white Korean fashion platform campaign board.</desc>
  <rect width="800" height="600" fill="#f4f1ea"/>
  <rect x="68" y="70" width="664" height="460" rx="28" fill="#101010"/>
  <rect x="108" y="112" width="280" height="360" rx="18" fill="#e8e2d7"/>
  <rect x="132" y="138" width="232" height="170" rx="14" fill="#c7c1b7"/>
  <path d="M164 306h168l-28 166H192z" fill="#111"/>
  <circle cx="248" cy="218" r="54" fill="#f3eee6"/>
  <rect x="430" y="116" width="232" height="56" rx="28" fill="#fff"/>
  <rect x="430" y="204" width="232" height="18" rx="9" fill="#fff" opacity=".84"/>
  <rect x="430" y="240" width="190" height="18" rx="9" fill="#fff" opacity=".58"/>
  <text x="430" y="328" font-family="Arial, sans-serif" font-size="70" font-weight="900" fill="#fff">MUSINSA</text>
  <text x="430" y="382" font-family="Arial, sans-serif" font-size="24" font-weight="700" fill="#bdb7ad">Season Editorial</text>
  <g transform="translate(430 424)">
    <rect width="70" height="70" rx="12" fill="#fff"/>
    <rect x="88" width="70" height="70" rx="12" fill="#75716a"/>
    <rect x="176" width="70" height="70" rx="12" fill="#d9d2c7"/>
  </g>
  <text x="68" y="565" font-family="Arial, sans-serif" font-size="18" font-weight="700" fill="#222">Mobile Campaign · Fashion Editorial</text>
</svg>
