<svg xmlns="http://www.w3.org/2000/svg" viewBox="0 0 800 600" role="img" aria-labelledby="title desc">
  <title id="title">Olive Young beauty campaign concept board</title>
  <desc id="desc">A Korean beauty retail portfolio mockup with green identity graphics and product cards.</desc>
  <defs>
    <linearGradient id="bg" x1="0" y1="0" x2="1" y2="1">
      <stop offset="0" stop-color="#ecf7df"/>
      <stop offset="1" stop-color="#f8fff1"/>
    </linearGradient>
    <filter id="shadow" x="-20%" y="-20%" width="140%" height="140%">
      <feDropShadow dx="0" dy="18" stdDeviation="20" flood-color="#274b21" flood-opacity=".18"/>
    </filter>
  </defs>
  <rect width="800" height="600" fill="url(#bg)"/>
  <circle cx="676" cy="82" r="156" fill="#c6e68f" opacity=".55"/>
  <circle cx="92" cy="508" r="178" fill="#0f6b35" opacity=".12"/>
  <g filter="url(#shadow)">
    <rect x="90" y="82" width="620" height="436" rx="30" fill="#fff"/>
  </g>
  <rect x="126" y="124" width="256" height="352" rx="24" fill="#0f6b35"/>
  <path d="M153 355c42-66 118-88 200-62v183H153z" fill="#bfe77b"/>
  <text x="154" y="178" font-family="Arial, sans-serif" font-size="24" font-weight="700" fill="#fff">OLIVE YOUNG</text>
  <text x="154" y="214" font-family="Arial, sans-serif" font-size="54" font-weight="900" fill="#fff">Clean</text>
  <text x="154" y="268" font-family="Arial, sans-serif" font-size="54" font-weight="900" fill="#fff">Beauty</text>
  <text x="154" y="318" font-family="Arial, sans-serif" font-size="20" fill="#e9ffd2">Campaign System</text>
  <g transform="translate(422 128)">
    <rect width="210" height="132" rx="22" fill="#f3f8ee" stroke="#d7e8ca"/>
    <rect x="28" y="32" width="42" height="72" rx="10" fill="#1e7a3b"/>
    <rect x="86" y="24" width="88" height="20" rx="10" fill="#aad866"/>
    <rect x="86" y="58" width="108" height="12" rx="6" fill="#d2e9b5"/>
    <rect x="86" y="82" width="78" height="12" rx="6" fill="#d2e9b5"/>
  </g>
  <g transform="translate(422 292)">
    <rect width="210" height="132" rx="22" fill="#f3f8ee" stroke="#d7e8ca"/>
    <circle cx="62" cy="66" r="38" fill="#bfe77b"/>
    <rect x="118" y="30" width="58" height="18" rx="9" fill="#1e7a3b"/>
    <rect x="104" y="62" width="82" height="12" rx="6" fill="#d2e9b5"/>
    <rect x="104" y="86" width="58" height="12" rx="6" fill="#d2e9b5"/>
  </g>
  <text x="126" y="552" font-family="Arial, sans-serif" font-size="18" font-weight="700" fill="#0f6b35">UX/UI Renewal Concept · Beauty Retail</text>
</svg>
